<?xml version="1.0" encoding="UTF-8"?>
<svg xmlns="http://www.w3.org/2000/svg" xmlns:xlink="http://www.w3.org/1999/xlink" width="1023pt" height="653pt" viewBox="0 0 1023 653" version="1.1">
<g id="surface1">
<path style=" stroke:none;fill-rule:nonzero;fill:rgb(34.509804%,28.627451%,100%);fill-opacity:1;" d="M 252.765625 557.003906 C 236.484375 529.902344 245.320312 480.167969 277.402344 418.386719 C 309.484375 356.601562 362.277344 287.644531 424.546875 226.183594 C 486.820312 164.71875 553.65625 115.601562 610.839844 89.277344 C 668.023438 62.957031 711.046875 61.507812 730.746094 85.234375 L 696.152344 120.042969 C 679.324219 99.773438 642.585938 101.015625 593.742188 123.496094 C 544.902344 145.976562 487.816406 187.929688 434.628906 240.425781 C 381.445312 292.917969 336.355469 351.816406 308.953125 404.585938 C 281.554688 457.355469 274.003906 499.832031 287.910156 522.980469 Z M 252.765625 557.003906 "/>
<path style=" stroke:none;fill-rule:nonzero;fill:rgb(0%,0%,0%);fill-opacity:1;" d="M 91.25 421.691406 C 62.246094 421.691406 39.847656 411.925781 24.054688 392.390625 C 8.546875 372.574219 0.792969 347.152344 0.792969 316.132812 C 0.792969 285.113281 8.691406 259.835938 24.484375 240.304688 C 40.566406 220.484375 63.539062 210.574219 93.402344 210.574219 C 109.769531 210.574219 124.847656 214.882812 138.628906 223.5 L 138.628906 189.035156 C 138.628906 174.382812 136.621094 163.613281 132.601562 156.71875 C 128.578125 149.539062 120.539062 145.949219 108.476562 145.949219 L 104.171875 145.949219 L 104.171875 133.023438 L 155.859375 133.023438 C 166.195312 133.023438 174.09375 134.746094 179.550781 138.195312 C 185.007812 141.640625 188.882812 147.386719 191.179688 155.425781 C 193.476562 163.183594 194.625 174.382812 194.625 189.035156 L 194.625 417.382812 L 158.011719 417.382812 L 142.9375 397.992188 L 140.785156 397.992188 C 136.761719 404.597656 130.300781 410.199219 121.402344 414.796875 C 112.785156 419.390625 102.734375 421.691406 91.25 421.691406 Z M 99.863281 402.300781 C 109.050781 402.300781 116.804688 399.429688 123.125 393.683594 C 129.726562 387.941406 134.898438 381.476562 138.628906 374.296875 L 138.628906 242.890625 C 126.855469 234.273438 114.652344 229.964844 102.015625 229.964844 C 73.300781 229.964844 58.945312 258.6875 58.945312 316.132812 C 58.945312 342.84375 62.101562 363.957031 68.417969 379.46875 C 75.023438 394.691406 85.507812 402.300781 99.863281 402.300781 Z M 313.886719 421.691406 C 294.070312 421.691406 276.699219 417.09375 261.765625 407.902344 C 246.835938 398.710938 235.203125 386.21875 226.878906 370.417969 C 218.835938 354.335938 214.816406 336.238281 214.816406 316.132812 C 214.816406 293.730469 218.835938 274.628906 226.878906 258.832031 C 235.203125 243.03125 246.546875 231.113281 260.90625 223.070312 C 275.261719 214.742188 291.488281 210.574219 309.578125 210.574219 C 327.382812 210.574219 343.464844 214.164062 357.820312 221.347656 C 372.179688 228.527344 383.523438 238.722656 391.847656 251.9375 C 400.175781 264.863281 404.339844 279.796875 404.339844 296.746094 L 402.617188 323.886719 L 272.964844 323.886719 C 272.964844 351.175781 277.128906 371.136719 285.457031 383.777344 C 293.785156 396.125 305.414062 402.300781 320.347656 402.300781 C 334.128906 402.300781 345.617188 399.285156 354.804688 393.253906 C 364.28125 386.933594 373.328125 378.03125 381.941406 366.542969 L 395.296875 376.449219 C 386.96875 389.375 376.484375 400.148438 363.851562 408.765625 C 351.503906 417.382812 334.847656 421.691406 313.886719 421.691406 Z M 346.191406 304.5 C 346.191406 277.5 343.03125 258.398438 336.714844 247.199219 C 330.398438 235.707031 321.351562 229.964844 309.578125 229.964844 C 298.667969 229.964844 289.765625 235.851562 282.871094 247.628906 C 276.269531 259.117188 272.964844 278.074219 272.964844 304.5 Z M 472.046875 327.335938 L 430.695312 257.96875 C 424.667969 247.914062 418.207031 240.015625 411.3125 234.273438 C 404.421875 228.242188 397.53125 224.648438 390.636719 223.5 L 390.636719 214.882812 L 431.558594 214.882812 C 444.765625 214.882812 455.535156 217.757812 463.863281 223.5 C 472.191406 229.246094 479.800781 237.863281 486.691406 249.351562 L 507.367188 284.25 L 563.792969 214.882812 L 592.652344 214.882812 L 519.859375 304.5 L 561.640625 374.296875 C 567.671875 384.351562 574.132812 392.390625 581.023438 398.425781 C 587.914062 404.167969 594.808594 407.617188 601.699219 408.765625 L 601.699219 417.382812 L 560.777344 417.382812 C 547.570312 417.382812 536.800781 414.507812 528.472656 408.765625 C 520.144531 403.019531 512.535156 394.402344 505.644531 382.914062 L 484.539062 348.015625 L 428.113281 417.382812 L 399.253906 417.382812 Z M 643.519531 191.617188 C 633.183594 191.617188 625.140625 188.460938 619.398438 182.140625 C 613.941406 175.820312 611.214844 168.066406 611.214844 158.875 C 611.214844 151.40625 613.371094 145.519531 617.675781 141.210938 C 622.269531 136.902344 628.015625 134.746094 634.90625 134.746094 C 645.242188 134.746094 653.140625 137.90625 658.597656 144.226562 C 664.339844 150.542969 667.210938 158.300781 667.210938 167.492188 C 667.210938 174.957031 664.914062 180.847656 660.320312 185.15625 C 656.011719 189.464844 650.414062 191.617188 643.519531 191.617188 Z M 615.523438 270.894531 C 615.523438 256.246094 613.511719 245.472656 609.492188 238.582031 C 605.472656 231.398438 597.433594 227.808594 585.371094 227.808594 L 581.0625 227.808594 L 581.0625 214.882812 L 632.753906 214.882812 C 643.089844 214.882812 650.988281 216.609375 656.441406 220.054688 C 661.898438 223.5 665.777344 229.246094 668.074219 237.289062 C 670.371094 245.042969 671.519531 256.246094 671.519531 270.894531 L 671.519531 417.382812 L 615.523438 417.382812 Z M 772.136719 421.691406 C 752.324219 421.691406 736.964844 416.375 726.046875 405.75 C 715.136719 394.835938 709.679688 379.179688 709.679688 358.785156 L 709.679688 234.273438 L 683.835938 234.273438 L 683.835938 214.882812 L 709.679688 214.882812 L 709.679688 176.109375 L 731.214844 150.257812 L 765.675781 150.257812 L 765.675781 214.882812 L 813.054688 214.882812 L 813.054688 234.273438 L 765.675781 234.273438 L 765.675781 361.371094 C 765.675781 376.882812 767.546875 387.652344 771.273438 393.683594 C 775.011719 399.429688 780.609375 402.300781 788.074219 402.300781 C 799.851562 402.300781 811.191406 398.425781 822.101562 390.667969 L 828.132812 402.734375 C 813.777344 415.371094 795.113281 421.691406 772.136719 421.691406 Z M 845.160156 488.472656 C 860.949219 488.472656 873.730469 485.453125 883.496094 479.421875 C 893.253906 473.390625 901.15625 462.476562 907.1875 446.679688 L 916.222656 423.414062 L 838.699219 253.660156 C 829.222656 232.980469 815.871094 221.488281 798.632812 219.191406 L 798.632812 210.574219 L 836.542969 210.574219 C 849.175781 210.574219 860.375 213.734375 870.140625 220.054688 C 879.902344 226.085938 887.371094 234.414062 892.539062 245.042969 L 942.074219 353.617188 L 994.625 214.882812 L 1017.453125 214.882812 L 930.445312 445.386719 C 922.402344 467.789062 913.066406 483.011719 902.449219 491.054688 C 891.820312 499.386719 878.46875 503.550781 862.382812 503.550781 L 845.160156 503.550781 Z M 845.160156 488.472656 "/>
<path style=" stroke:none;fill-rule:nonzero;fill:rgb(34.509804%,28.627451%,100%);fill-opacity:1;" d="M 727.683594 81.933594 C 740.792969 94.628906 745.300781 115.855469 740.847656 143.945312 C 736.398438 172.035156 723.105469 206.214844 702.019531 243.792969 C 680.933594 281.367188 652.636719 321.308594 619.359375 360.464844 C 586.078125 399.625 548.730469 436.925781 510.253906 469.429688 C 471.78125 501.929688 433.234375 528.746094 397.660156 547.757812 C 362.082031 566.769531 330.449219 577.457031 305.253906 578.976562 C 280.058594 580.496094 261.992188 572.808594 252.480469 556.519531 C 242.964844 540.230469 242.265625 515.785156 250.433594 485.109375 L 285.917969 461.574219 C 278.941406 487.773438 279.542969 508.652344 287.667969 522.566406 C 295.792969 536.480469 311.222656 543.042969 332.742188 541.746094 C 354.261719 540.445312 381.277344 531.320312 411.664062 515.082031 C 442.050781 498.84375 474.972656 475.941406 507.832031 448.179688 C 540.691406 420.421875 572.59375 388.5625 601.015625 355.117188 C 629.441406 321.671875 653.609375 287.558594 671.617188 255.464844 C 689.625 223.371094 700.976562 194.175781 704.785156 170.1875 C 708.589844 146.195312 704.738281 128.0625 693.539062 117.21875 Z M 727.683594 81.933594 "/>
</g>
</svg>
